<svg width="14" height="22" viewBox="0 0 14 22" fill="none" xmlns="http://www.w3.org/2000/svg">
<path d="M11.0779 7.59497L10.8433 7.6804L10.8593 7.92953C10.9374 9.14669 11.3264 10.6477 11.8212 12.1802C12.2917 13.6373 12.866 15.1466 13.3806 16.499C13.4089 16.5734 13.437 16.6473 13.465 16.7207C14.2225 18.7136 12.7477 20.8527 10.6151 20.8527H3.38455C1.25257 20.8527 -0.223016 18.7141 0.534689 16.7207C0.568442 16.6319 0.60257 16.5422 0.637019 16.4517C1.13516 15.1429 1.70042 13.6579 2.16771 12.2139C2.66575 10.6749 3.06165 9.15579 3.14037 7.92953L3.15636 7.68039L2.92178 7.59497C2.36149 7.39092 1.96153 6.85298 1.96153 6.22511C1.96153 5.56217 2.40776 4.99985 3.01702 4.82473L3.34483 4.73051L3.2431 4.40496C2.99295 3.60434 3.27936 2.81091 3.96784 2.19235C4.66041 1.57011 5.74519 1.14705 6.9998 1.14705C8.25422 1.14705 9.33907 1.57003 10.0317 2.19225C10.7203 2.81078 11.0068 3.60419 10.7565 4.40494L10.6548 4.73049L10.9826 4.82473C11.5919 4.99989 12.0381 5.56217 12.0381 6.22511C12.0381 6.85298 11.6381 7.39093 11.0779 7.59497ZM10.3352 7.99325L10.3143 7.68232H10.0026H3.99703H3.6854L3.66445 7.99325C3.55226 9.6589 2.91366 11.7653 2.14495 13.9145L1.863 14.7027L2.6096 14.324L6.88066 12.1575L6.88069 12.1575C6.95551 12.1195 7.04412 12.1195 7.11901 12.1575L7.11902 12.1575L11.3901 14.324L12.1367 14.7027L11.8547 13.9145C11.086 11.7653 10.4474 9.6589 10.3352 7.99325ZM5.5426 2.39624V1.86794L5.06577 2.09537C4.57825 2.32789 4.13536 2.67252 3.88661 3.10378C3.62661 3.55456 3.58916 4.08899 3.91306 4.61046L4.01086 4.76791H4.19622H9.8033H9.98866L10.0865 4.61045C10.3956 4.11263 10.3785 3.58885 10.1306 3.1349C9.89255 2.69891 9.45324 2.34308 8.93382 2.09537L8.457 1.86796V2.39624V2.64405C8.457 2.78957 8.33901 2.90756 8.19349 2.90756C8.04797 2.90756 7.92998 2.78957 7.92998 2.64405V2.04788V1.75674L7.64148 1.71757C7.21427 1.65958 6.78517 1.65958 6.3581 1.71758L6.06962 1.75675V2.04788V2.64405C6.06962 2.78957 5.95163 2.90756 5.80611 2.90756C5.66059 2.90756 5.5426 2.78957 5.5426 2.64405V2.39624ZM1.02735 16.9079L1.33893 17.0263L1.02734 16.9079C0.399483 18.5597 1.61577 20.3257 3.38455 20.3257H10.6151C12.3821 20.3257 13.6008 18.5613 12.9723 16.9079L12.6607 17.0264L12.9723 16.9079C12.946 16.8388 12.92 16.7704 12.8942 16.7026C12.7442 16.3081 12.6024 15.9351 12.4594 15.5554L12.4137 15.4342L12.2982 15.3756L7.15059 12.7645L6.9998 12.688L6.84901 12.7645L1.70142 15.3755L1.58591 15.4341L1.54026 15.5553C1.3993 15.9297 1.26298 16.2882 1.10842 16.6947C1.08197 16.7642 1.05498 16.8352 1.02735 16.9079ZM10.5809 5.29494H3.41873C2.90554 5.29494 2.48855 5.71192 2.48855 6.22511C2.48855 6.73831 2.90554 7.15529 3.41873 7.15529H10.5809C11.0941 7.15529 11.511 6.73831 11.511 6.22511C11.511 5.71192 11.0941 5.29494 10.5809 5.29494Z" fill="#FB6D3A" stroke="#FB6D3A" stroke-width="0.666667"/>
<path d="M4.61271 17.5648C4.94234 17.5648 5.20956 17.2976 5.20956 16.9679C5.20956 16.6383 4.94234 16.3711 4.61271 16.3711C4.28309 16.3711 4.01587 16.6383 4.01587 16.9679C4.01587 17.2976 4.28309 17.5648 4.61271 17.5648Z" fill="#FB6D3A"/>
<path d="M6.40324 15.7745C6.73287 15.7745 7.00009 15.5073 7.00009 15.1777C7.00009 14.848 6.73287 14.5808 6.40324 14.5808C6.07361 14.5808 5.8064 14.848 5.8064 15.1777C5.8064 15.5073 6.07361 15.7745 6.40324 15.7745Z" fill="#FB6D3A"/>
<path d="M7.59685 18.162C7.92647 18.162 8.19369 17.8947 8.19369 17.5651C8.19369 17.2355 7.92647 16.9683 7.59685 16.9683C7.26722 16.9683 7 17.2355 7 17.5651C7 17.8947 7.26722 18.162 7.59685 18.162Z" fill="#FB6D3A"/>
</svg>
